<?xml version="1.0" encoding="us-ascii" standalone="no"?><svg xmlns="http://www.w3.org/2000/svg" xmlns:xlink="http://www.w3.org/1999/xlink" contentStyleType="text/css" height="683px" preserveAspectRatio="none" style="width:1156px;height:683px;background:#FFFFFF;" version="1.1" viewBox="0 0 1156 683" width="1156px" zoomAndPan="magnify"><defs/><g><text fill="#000000" font-family="sans-serif" font-size="14" font-weight="bold" lengthAdjust="spacing" textLength="325" x="408.5" y="24.5332">AniTec - Financial Management - Domain Layer</text><!--cluster Financial Management--><g id="cluster_Financial Management"><path d="M8.5,44.6094 L167.5,44.6094 A3.75,3.75 0 0 1 170,47.1094 L177,68.2188 L742.5,68.2188 A2.5,2.5 0 0 1 745,70.7188 L745,674.1094 A2.5,2.5 0 0 1 742.5,676.6094 L8.5,676.6094 A2.5,2.5 0 0 1 6,674.1094 L6,47.1094 A2.5,2.5 0 0 1 8.5,44.6094 " fill="none" style="stroke:#000000;stroke-width:1.5;"/><line style="stroke:#000000;stroke-width:1.5;" x1="6" x2="177" y1="68.2188" y2="68.2188"/><text fill="#000000" font-family="sans-serif" font-size="14" font-weight="bold" lengthAdjust="spacing" textLength="158" x="10" y="61.1426">Financial Management</text></g><!--class FinancialRecord--><g id="elem_FinancialRecord"><rect codeLine="13" fill="#F7FAFC" height="217.1875" id="FinancialRecord" rx="2.5" ry="2.5" style="stroke:#2A9D8F;stroke-width:0.5;" width="350" x="230" y="254.6094"/><text fill="#000000" font-family="sans-serif" font-size="12" font-style="italic" lengthAdjust="spacing" textLength="100" x="355" y="272.0664">&#171;Aggregate Root&#187;</text><text fill="#000000" font-family="sans-serif" font-size="14" lengthAdjust="spacing" textLength="103" x="353.5" y="289.2363">FinancialRecord</text><line style="stroke:#2A9D8F;stroke-width:0.5;" x1="231" x2="579" y1="297.3125" y2="297.3125"/><text fill="#000000" font-family="sans-serif" font-size="14" lengthAdjust="spacing" textLength="39" x="236" y="315.8457">-id: int</text><text fill="#000000" font-family="sans-serif" font-size="14" lengthAdjust="spacing" textLength="77" x="236" y="333.4551">-ownerId: int</text><text fill="#000000" font-family="sans-serif" font-size="14" lengthAdjust="spacing" textLength="175" x="236" y="351.0645">-type: FinancialRecordType</text><text fill="#000000" font-family="sans-serif" font-size="14" lengthAdjust="spacing" textLength="183" x="236" y="368.6738">-category: FinancialCategory</text><text fill="#000000" font-family="sans-serif" font-size="14" lengthAdjust="spacing" textLength="102" x="236" y="386.2832">-amount: Money</text><text fill="#000000" font-family="sans-serif" font-size="14" lengthAdjust="spacing" textLength="71" x="236" y="403.8926">-date: Date</text><text fill="#000000" font-family="sans-serif" font-size="14" lengthAdjust="spacing" textLength="117" x="236" y="421.502">-description: string</text><line style="stroke:#2A9D8F;stroke-width:0.5;" x1="231" x2="579" y1="428.5781" y2="428.5781"/><text fill="#000000" font-family="sans-serif" font-size="14" lengthAdjust="spacing" textLength="247" x="236" y="447.1113">+ChangeAmount(amount: Money): void</text><text fill="#000000" font-family="sans-serif" font-size="14" lengthAdjust="spacing" textLength="338" x="236" y="464.7207">+ChangeCategory(category: FinancialCategory): void</text></g><!--class Money--><g id="elem_Money"><rect codeLine="24" fill="#F7FAFC" height="129.1406" id="Money" rx="2.5" ry="2.5" style="stroke:#2A9D8F;stroke-width:0.5;" width="188" x="111" y="531.6094"/><text fill="#000000" font-family="sans-serif" font-size="12" font-style="italic" lengthAdjust="spacing" textLength="126" x="142" y="549.0664">&#171;Value Object - target&#187;</text><text fill="#000000" font-family="sans-serif" font-size="14" lengthAdjust="spacing" textLength="42" x="184" y="566.2363">Money</text><line style="stroke:#2A9D8F;stroke-width:0.5;" x1="112" x2="298" y1="574.3125" y2="574.3125"/><text fill="#000000" font-family="sans-serif" font-size="14" lengthAdjust="spacing" textLength="108" x="117" y="592.8457">-amount: decimal</text><text fill="#000000" font-family="sans-serif" font-size="14" lengthAdjust="spacing" textLength="103" x="117" y="610.4551">-currency: string</text><line style="stroke:#2A9D8F;stroke-width:0.5;" x1="112" x2="298" y1="617.5313" y2="617.5313"/><text fill="#000000" font-family="sans-serif" font-size="14" lengthAdjust="spacing" textLength="176" x="117" y="636.0645">+Add(other: Money): Money</text><text fill="#000000" font-family="sans-serif" font-size="14" lengthAdjust="spacing" textLength="112" x="117" y="653.6738">+IsPositive(): bool</text></g><!--class FinancialRecordType--><g id="elem_FinancialRecordType"><rect codeLine="30" fill="#F7FAFC" height="78.8281" id="FinancialRecordType" rx="2.5" ry="2.5" style="stroke:#2A9D8F;stroke-width:0.5;" width="141" x="334.5" y="556.6094"/><text fill="#000000" font-family="sans-serif" font-size="14" lengthAdjust="spacing" textLength="135" x="337.5" y="576.1426">FinancialRecordType</text><line style="stroke:#2A9D8F;stroke-width:0.5;" x1="335.5" x2="474.5" y1="584.2188" y2="584.2188"/><text fill="#000000" font-family="sans-serif" font-size="14" lengthAdjust="spacing" textLength="45" x="340.5" y="602.752">Income</text><text fill="#000000" font-family="sans-serif" font-size="14" lengthAdjust="spacing" textLength="54" x="340.5" y="620.3613">Expense</text><line style="stroke:#2A9D8F;stroke-width:0.5;" x1="335.5" x2="474.5" y1="627.4375" y2="627.4375"/></g><!--class FinancialCategory--><g id="elem_FinancialCategory"><rect codeLine="34" fill="#F7FAFC" height="93.9219" id="FinancialCategory" rx="2.5" ry="2.5" style="stroke:#2A9D8F;stroke-width:0.5;" width="128" x="511" y="549.1094"/><text fill="#000000" font-family="sans-serif" font-size="12" font-style="italic" lengthAdjust="spacing" textLength="126" x="512" y="566.5664">&#171;Value Object - target&#187;</text><text fill="#000000" font-family="sans-serif" font-size="14" lengthAdjust="spacing" textLength="115" x="517.5" y="583.7363">FinancialCategory</text><line style="stroke:#2A9D8F;stroke-width:0.5;" x1="512" x2="638" y1="591.8125" y2="591.8125"/><text fill="#000000" font-family="sans-serif" font-size="14" lengthAdjust="spacing" textLength="83" x="517" y="610.3457">-name: string</text><line style="stroke:#2A9D8F;stroke-width:0.5;" x1="512" x2="638" y1="617.4219" y2="617.4219"/><text fill="#000000" font-family="sans-serif" font-size="14" lengthAdjust="spacing" textLength="94" x="517" y="635.9551">+IsValid(): bool</text></g><!--class FinancialSummary--><g id="elem_FinancialSummary"><rect codeLine="38" fill="#F7FAFC" height="76.3125" id="FinancialSummary" rx="2.5" ry="2.5" style="stroke:#2A9D8F;stroke-width:0.5;" width="336" x="22" y="99.6094"/><text fill="#000000" font-family="sans-serif" font-size="12" font-style="italic" lengthAdjust="spacing" textLength="143" x="118.5" y="117.0664">&#171;Domain Service - target&#187;</text><text fill="#000000" font-family="sans-serif" font-size="14" lengthAdjust="spacing" textLength="116" x="132" y="134.2363">FinancialSummary</text><line style="stroke:#2A9D8F;stroke-width:0.5;" x1="23" x2="357" y1="142.3125" y2="142.3125"/><line style="stroke:#2A9D8F;stroke-width:0.5;" x1="23" x2="357" y1="150.3125" y2="150.3125"/><text fill="#000000" font-family="sans-serif" font-size="14" lengthAdjust="spacing" textLength="324" x="28" y="168.8457">+Calculate(records: List~FinancialRecord~): Money</text></g><!--class IFinancialRecordRepository--><g id="elem_IFinancialRecordRepository"><rect codeLine="41" fill="#F7FAFC" height="114.0469" id="IFinancialRecordRepository" rx="2.5" ry="2.5" style="stroke:#2A9D8F;stroke-width:0.5;" width="336" x="393" y="80.6094"/><text fill="#000000" font-family="sans-serif" font-size="14" font-style="italic" lengthAdjust="spacing" textLength="175" x="473.5" y="100.1426">IFinancialRecordRepository</text><line style="stroke:#2A9D8F;stroke-width:0.5;" x1="394" x2="728" y1="108.2188" y2="108.2188"/><line style="stroke:#2A9D8F;stroke-width:0.5;" x1="394" x2="728" y1="116.2188" y2="116.2188"/><text fill="#000000" font-family="sans-serif" font-size="14" lengthAdjust="spacing" textLength="226" x="399" y="134.752">+FindById(id: int): FinancialRecord?</text><text fill="#000000" font-family="sans-serif" font-size="14" lengthAdjust="spacing" textLength="324" x="399" y="152.3613">+FindByOwner(ownerId: int): List~FinancialRecord~</text><text fill="#000000" font-family="sans-serif" font-size="14" lengthAdjust="spacing" textLength="229" x="399" y="169.9707">+Add(record: FinancialRecord): void</text><text fill="#000000" font-family="sans-serif" font-size="14" lengthAdjust="spacing" textLength="249" x="399" y="187.5801">+Update(record: FinancialRecord): void</text></g><g id="elem_GMN14"><path d="M761,341.6094 L761,384.3125 L1149,384.3125 L1149,351.6094 L1139,341.6094 L761,341.6094 " fill="#FEFFDD" style="stroke:#181818;stroke-width:0.5;"/><path d="M1139,341.6094 L1139,351.6094 L1149,351.6094 L1139,341.6094 " fill="#FEFFDD" style="stroke:#181818;stroke-width:1.0;"/><text fill="#000000" font-family="sans-serif" font-size="13" lengthAdjust="spacing" textLength="300" x="767" y="360.1045">Existing elements preserve the backend vocabulary.</text><text fill="#000000" font-family="sans-serif" font-size="13" lengthAdjust="spacing" textLength="367" x="767" y="376.4561">Elements marked as target complete the mobile course design.</text></g><!--reverse link FinancialRecord to Money--><g id="link_FinancialRecord_Money"><path codeLine="47" d="M264.5,483.7694 C264.5,504.1694 264.5,512.8994 264.5,531.4294 " fill="none" id="FinancialRecord-backto-Money" style="stroke:#52616B;stroke-width:1.0;"/><polygon fill="#52616B" points="264.5,471.7694,260.5,477.7694,264.5,483.7694,268.5,477.7694,264.5,471.7694" style="stroke:#52616B;stroke-width:1.0;"/></g><!--link FinancialRecord to FinancialRecordType--><g id="link_FinancialRecord_FinancialRecordType"><path codeLine="48" d="M405,471.7694 C405,502.0194 405,526.9794 405,550.4394 " fill="none" id="FinancialRecord-to-FinancialRecordType" style="stroke:#52616B;stroke-width:1.0;"/><polygon fill="#52616B" points="405,556.4394,409,547.4394,405,551.4394,401,547.4394,405,556.4394" style="stroke:#52616B;stroke-width:1.0;"/></g><!--reverse link FinancialRecord to FinancialCategory--><g id="link_FinancialRecord_FinancialCategory"><path codeLine="49" d="M545.5,483.7694 C545.5,510.9294 545.5,526.6694 545.5,549.0394 " fill="none" id="FinancialRecord-backto-FinancialCategory" style="stroke:#52616B;stroke-width:1.0;"/><polygon fill="#52616B" points="545.5,471.7694,541.5,477.7694,545.5,483.7694,549.5,477.7694,545.5,471.7694" style="stroke:#52616B;stroke-width:1.0;"/></g><!--link FinancialSummary to FinancialRecord--><g id="link_FinancialSummary_FinancialRecord"><path codeLine="50" d="M294,175.8594 C294,197.5994 294,220.0294 294,248.1394 " fill="none" id="FinancialSummary-to-FinancialRecord" style="stroke:#52616B;stroke-width:1.0;stroke-dasharray:7.0,7.0;"/><polygon fill="#52616B" points="294,254.1394,298,245.1394,294,249.1394,290,245.1394,294,254.1394" style="stroke:#52616B;stroke-width:1.0;"/></g><!--link IFinancialRecordRepository to FinancialRecord--><g id="link_IFinancialRecordRepository_FinancialRecord"><path codeLine="51" d="M486.5,194.7994 C486.5,213.0694 486.5,227.9294 486.5,248.5994 " fill="none" id="IFinancialRecordRepository-to-FinancialRecord" style="stroke:#52616B;stroke-width:1.0;stroke-dasharray:7.0,7.0;"/><polygon fill="#52616B" points="486.5,254.5994,490.5,245.5994,486.5,249.5994,482.5,245.5994,486.5,254.5994" style="stroke:#52616B;stroke-width:1.0;"/></g><!--link IFinancialRecordRepository to GMN14--><g id="link_IFinancialRecordRepository_GMN14"><path d="M684,194.6394 C684,261.5894 684,363.6094 684,363.6094 C684,363.6094 717.49,363.6094 760.93,363.6094 " fill="none" id="IFinancialRecordRepository-GMN14" style="stroke:#52616B;stroke-width:1.0;stroke-dasharray:7.0,7.0;"/></g><!--SRC=[XLHHJzim47xFhpYnbp3KQaCQsoB45CegLG8n0TkxOn-fX-EBR0VMJUMtxnmIcgM5lLJDtVdpzvs_kw23GSYjla494vXhAwpKmi25iAB42ctWy1bLGbiu5ojqoL8h1AcTD9ZuEsrhuKG5qWZlyn2SBfg02qdsMlz6U3SeyKkXw47R4cw5ySF3HbiCgng1N5ZI61N-902dGjwLZXghPcJ8mPlvnta-dyKCEOMkYnxcdyy-pJcQEqSFNV33uT7xezDadIGrex0isDibT8ylUhhmENk5aj7X-3WlIuUb20XNHE7afEKqqIe3RKFyImyMtMBp7ULaOw0R3iQaPA2It6fGCEj2CIqgrXaok22BRK1nCeCp_cs_q4kdww39Pk2vuxRayC5iAMo9UNis_GTYFuDxqcfJr5-MlaAaFxJkUj8YSIT-2DCWN1O_KKPh1E5AV6v8Vwr2gIjXMgsDSsZbQaWrLogbi4It8TXhFLZuR-HrqFUOShWWCam1RLFjQcPxwy9Agc9dllwgqRAnrkDdx3NzZxuL5GvvBZoNQpKWCWA-RgfAjBZTY5oZkzSInyW7Cs5aOvX6wbhoFeDpxSFZIDFZSoVM2Hi9tQrWiCMewWhhsA8eg0Ndj3fTBLJQ-N5_otXVDcMNqQZfqAxxBt3fN-g9yHRcm5NVQxMHzcBXEXdFrTl9f9Cxpamc9pk7PnV2zWnjlSzqkWMNlDBLNUMyFIpn_1SK0bMjsxXfSPkXQTU7XzgXv_T7O6j3mQi6hMBfKXJyz6urZOVwMgPrXmg4xum2xE7QO7WwN56XUIzBQfn7dYQlIpjD8bpay1S0]--></g></svg>