<svg xmlns="http://www.w3.org/2000/svg" xmlns:xlink="http://www.w3.org/1999/xlink" version="1.1" width="5740" height="1408" style="width: 5740px; height: 1408px; background: #ffffff" viewBox="0 0 5740 1408"><style id="v-3" type="text/css">        .joint-element .scalable * {            vector-effect: non-scaling-stroke;        }    </style><defs joint-selector="defs"><marker id="v-2401656993" orient="auto" overflow="visible" markerUnits="userSpaceOnUse"><path id="v-161" stroke="#52616b" fill="#52616b" transform="rotate(180)" d="M 20 -10 0 0 20 10 Z"></path></marker></defs><g joint-selector="layers"  transform="matrix(1,0,0,1,0,0)"><g  style="pointer-events: none;"></g><g ></g><g  style="user-select: none;"><!--z-index:0--><!--z-index:1--><!--z-index:2--><!--z-index:3--><!--z-index:4--><!--z-index:5--><!--z-index:6--><!--z-index:7--><!--z-index:8--><!--z-index:9--><!--z-index:10--><!--z-index:11--><!--z-index:12--><!--z-index:13--><!--z-index:14--><!--z-index:15--><!--z-index:16--><!--z-index:17--><!--z-index:18--><!--z-index:19--><!--z-index:20--><!--z-index:21--><!--z-index:22--><!--z-index:23--><g   id="j_77"  transform="translate(20,1364)"><g id="v-836"><text  id="v-837" font-size="24px" xml:space="preserve" y="0.8em" font-weight="normal" text-anchor="start" fill="#444444" pointer-events="none" display="block" font-family="Tahoma, Verdana, Helvetica, Arial"><tspan dy="0" >Tuesday, September 15, 2026 at 3:26 AM Coordinated Universal Time</tspan></text></g></g><!--z-index:24--><g   id="j_76"  transform="translate(20,1330)"><g id="v-834"><text  id="v-835" font-size="24px" xml:space="preserve" y="0.8em" font-weight="normal" text-anchor="start" fill="#444444" pointer-events="none" display="block" font-family="Tahoma, Verdana, Helvetica, Arial"><tspan dy="0" >Componentes Flutter de Financial Management.</tspan></text></g></g><!--z-index:25--><g   id="j_75"  transform="translate(20,1284)"><g id="v-832"><text  id="v-833" font-size="36px" xml:space="preserve" y="0.8em" font-weight="normal" text-anchor="start" fill="#444444" pointer-events="none" display="block" font-family="Tahoma, Verdana, Helvetica, Arial"><tspan dy="0" >Component View: AniTec - Cross-Platform Mobile Application</tspan></text></g></g><!--z-index:26--><g   id="j_78"  transform="translate(199,193)" style=""><g  id="v-844" style="opacity: 1;"><rect  x="0" y="160" width="400" height="240" rx="70" id="v-846" stroke-width="2" pointer-events="visiblePainted" fill="#084c61" stroke="#074457" stroke-dasharray="" style="fill: rgb(8, 76, 97); stroke: rgb(7, 68, 87);"></rect><circle  cx="200" cy="88.88888888888889" r="88.88888888888889" id="v-845" stroke-width="2" pointer-events="visiblePainted" fill="#084c61" stroke="#074457" stroke-dasharray="" style="fill: rgb(8, 76, 97); stroke: rgb(7, 68, 87);"></circle><line  x1="80" y1="266.6666666666667" x2="80" y2="400" id="v-852" stroke="#074457" stroke-width="1" stroke-dasharray="" style="stroke: rgb(7, 68, 87);"></line><line  x1="320" y1="266.6666666666667" x2="320" y2="400" id="v-853" stroke="#074457" stroke-width="1" stroke-dasharray="" style="stroke: rgb(7, 68, 87);"></line><text  id="v-847" font-size="33.599999999999994px" xml:space="preserve" y="182.34" font-weight="bold" text-anchor="middle" pointer-events="visible" font-family="Tahoma, Verdana, Helvetica, Arial" fill="#ffffff" dominant-baseline="hanging" transform="matrix(1,0,0,1,200,0)" style="fill: rgb(255, 255, 255);"><tspan dy="0" >Authenticated Mobile</tspan><tspan dy="1.2em" x="0" >User</tspan></text><text  id="v-848" font-size="16.799999999999997px" xml:space="preserve" y="264.26" text-anchor="middle" font-family="Tahoma, Verdana, Helvetica, Arial" fill="#ffffff" dominant-baseline="hanging" transform="matrix(1,0,0,1,200,0)" style="display: block; fill: rgb(255, 255, 255);"><tspan dy="0" >[Person]</tspan></text><text  id="v-849" font-size="24px" xml:space="preserve" y="296.06" text-anchor="middle" font-family="Tahoma, Verdana, Helvetica, Arial" fill="#ffffff" dominant-baseline="hanging" transform="matrix(1,0,0,1,200,0)" style="display: block; fill: rgb(255, 255, 255);"><tspan dy="0" >Ganadero o veterinario</tspan><tspan dy="1.2em" x="0" >autorizado para usar las</tspan><tspan dy="1.2em" x="0" >capacidades del contexto.</tspan></text><g  id="v-850" font-weight="normal" text-anchor="middle" color="#ffffff" transform="matrix(1,0,0,1,197.5,368)" display="none" style="fill: rgb(255, 255, 255);"><g ></g><g ></g><g ></g><g ></g></g><image  id="v-851"></image></g></g><!--z-index:27--><g   id="j_80"  transform="translate(939,143)" style="; opacity: 1;"><g id="v-864"><rect  id="v-865" width="4600" height="1008" rx="0" ry="0" stroke-width="2" pointer-events="none" stroke="#15717b" fill="#ffffff" opacity="1" stroke-dasharray=""></rect><text  id="v-866" font-size="33.599999999999994px" xml:space="preserve" y="969" font-weight="bold" text-anchor="start" pointer-events="visible" font-family="Tahoma, Verdana, Helvetica, Arial" fill="#15717b" transform="matrix(1,0,0,1,15,0)"><tspan dy="0" >AniTec</tspan></text><text  id="v-867" font-size="16.799999999999997px" xml:space="preserve" y="993" font-weight="normal" text-anchor="start" pointer-events="visible" font-family="Tahoma, Verdana, Helvetica, Arial" fill="#15717b" transform="matrix(1,0,0,1,15,0)"><tspan dy="0" >[Software System]</tspan></text><image  id="v-868" pointer-events="visible"></image></g></g><!--z-index:28--><g   id="j_79"  transform="translate(5039,243)" style=""><g  id="v-857" style="opacity: 1;"><rect  id="v-858" rx="1" ry="1" stroke-width="2" pointer-events="visiblePainted" fill="#2a9d8f" stroke="#268d81" stroke-dasharray="" width="450" height="300" style="fill: rgb(42, 157, 143); stroke: rgb(38, 141, 129);"></rect><text  id="v-859" font-size="33.599999999999994px" xml:space="preserve" y="86.9" font-weight="bold" text-anchor="middle" pointer-events="visible" font-family="Tahoma, Verdana, Helvetica, Arial" fill="#ffffff" dominant-baseline="hanging" transform="matrix(1,0,0,1,225,0)" style="fill: rgb(255, 255, 255);"><tspan dy="0" >AniTec REST API</tspan></text><text  id="v-860" font-size="16.799999999999997px" xml:space="preserve" y="128.5" text-anchor="middle" font-family="Tahoma, Verdana, Helvetica, Arial" fill="#ffffff" dominant-baseline="hanging" transform="matrix(1,0,0,1,225,0)" style="display: block; fill: rgb(255, 255, 255);"><tspan dy="0" >[Container: C# y ASP.NET Core]</tspan></text><text  id="v-861" font-size="24px" xml:space="preserve" y="160.3" text-anchor="middle" font-family="Tahoma, Verdana, Helvetica, Arial" fill="#ffffff" dominant-baseline="hanging" transform="matrix(1,0,0,1,225,0)" style="display: block; fill: rgb(255, 255, 255);"><tspan dy="0" >Backend y fuente autoritativa de</tspan><tspan dy="1.2em" x="0" >reglas de negocio.</tspan></text><g  id="v-862" color="#ffffff" transform="matrix(1,0,0,1,210,268)" display="none" style="fill: rgb(255, 255, 255);"><g  transform="translate(5 0)"><svg xmlns="http://www.w3.org/2000/svg" width="20" height="20" fill="currentColor" viewBox="0 0 16 16"><path fill-rule="evenodd" d="M6.5 12a5.5 5.5 0 1 0 0-11 5.5 5.5 0 0 0 0 11zM13 6.5a6.5 6.5 0 1 1-13 0 6.5 6.5 0 0 1 13 0z"></path><path d="M10.344 11.742c.03.04.062.078.098.115l3.85 3.85a1 1 0 0 0 1.415-1.414l-3.85-3.85a1.007 1.007 0 0 0-.115-.1 6.538 6.538 0 0 1-1.398 1.4z"></path><path fill-rule="evenodd" d="M6.5 3a.5.5 0 0 1 .5.5V6h2.5a.5.5 0 0 1 0 1H7v2.5a.5.5 0 0 1-1 0V7H3.5a.5.5 0 0 1 0-1H6V3.5a.5.5 0 0 1 .5-.5z"></path></svg></g><g ></g><g ></g><g ></g></g><image  id="v-863"></image></g></g><!--z-index:29--><g   id="j_82"  transform="translate(989,193)" style="; opacity: 1;"><g id="v-882"><rect  id="v-883" width="3710" height="829" rx="0" ry="0" stroke-width="2" pointer-events="none" stroke="#268d81" fill="#ffffff" opacity="1" stroke-dasharray=""></rect><text  id="v-884" font-size="33.599999999999994px" xml:space="preserve" y="790" font-weight="bold" text-anchor="start" pointer-events="visible" font-family="Tahoma, Verdana, Helvetica, Arial" fill="#268d81" transform="matrix(1,0,0,1,15,0)"><tspan dy="0" >Cross-Platform Mobile Application</tspan></text><text  id="v-885" font-size="16.799999999999997px" xml:space="preserve" y="814" font-weight="normal" text-anchor="start" pointer-events="visible" font-family="Tahoma, Verdana, Helvetica, Arial" fill="#268d81" transform="matrix(1,0,0,1,15,0)"><tspan dy="0" >[Container]</tspan></text><image  id="v-886" pointer-events="visible"></image></g></g><!--z-index:30--><g   id="j_89"  transform="translate(5039,593)" style=""><g  id="v-971" style="opacity: 1;"><path  d="M 0,30 a 225,30 0,0,0 450 0 a 225,30 0,0,0 -450 0 l 0,240 a 225,30 0,0,0 450 0 l 0,-240" id="v-972" stroke-width="2" pointer-events="visiblePainted" fill="#5c6b73" stroke="#536068" stroke-dasharray="" style="fill: rgb(92, 107, 115); stroke: rgb(83, 96, 104);"></path><rect  id="v-973" stroke-width="0" pointer-events="visiblePainted" fill="none" stroke="none" width="450" height="270" x="0" y="30"></rect><text  id="v-974" font-size="33.599999999999994px" xml:space="preserve" y="101.9" font-weight="bold" text-anchor="middle" pointer-events="visible" font-family="Tahoma, Verdana, Helvetica, Arial" fill="#ffffff" dominant-baseline="hanging" transform="matrix(1,0,0,1,225,0)" style="fill: rgb(255, 255, 255);"><tspan dy="0" >Flutter Local Database</tspan></text><text  id="v-975" font-size="16.799999999999997px" xml:space="preserve" y="143.5" text-anchor="middle" font-family="Tahoma, Verdana, Helvetica, Arial" fill="#ffffff" dominant-baseline="hanging" transform="matrix(1,0,0,1,225,0)" style="display: block; fill: rgb(255, 255, 255);"><tspan dy="0" >[Container: SQLite]</tspan></text><text  id="v-976" font-size="24px" xml:space="preserve" y="175.3" text-anchor="middle" font-family="Tahoma, Verdana, Helvetica, Arial" fill="#ffffff" dominant-baseline="hanging" transform="matrix(1,0,0,1,225,0)" style="display: block; fill: rgb(255, 255, 255);"><tspan dy="0" >Caché y outbox del contexto en</tspan><tspan dy="1.2em" x="0" >Flutter.</tspan></text><g  id="v-977" font-weight="normal" text-anchor="middle" color="#ffffff" transform="matrix(1,0,0,1,222.5,268)" display="none" style="fill: rgb(255, 255, 255);"><g ></g><g ></g><g ></g><g ></g></g><image  id="v-978"></image></g></g><!--z-index:31--><g   id="j_81"  transform="translate(1039,243)" style=""><g  id="v-875" style="opacity: 1;"><rect  id="v-876" rx="1" ry="1" stroke-width="2" pointer-events="visiblePainted" fill="#457b9d" stroke="#3e6f8d" stroke-dasharray="" width="450" height="300" style="fill: rgb(69, 123, 157); stroke: rgb(62, 111, 141);"></rect><text  id="v-877" font-size="33.599999999999994px" xml:space="preserve" y="81.14000000000001" font-weight="bold" text-anchor="middle" pointer-events="visible" font-family="Tahoma, Verdana, Helvetica, Arial" fill="#ffffff" dominant-baseline="hanging" transform="matrix(1,0,0,1,225,0)" style="fill: rgb(255, 255, 255);"><tspan dy="0" >Financial Management</tspan><tspan dy="1.2em" x="0" >Widgets</tspan></text><text  id="v-878" font-size="16.799999999999997px" xml:space="preserve" y="163.06" text-anchor="middle" font-family="Tahoma, Verdana, Helvetica, Arial" fill="#ffffff" dominant-baseline="hanging" transform="matrix(1,0,0,1,225,0)" style="display: block; fill: rgb(255, 255, 255);"><tspan dy="0" >[Component: Flutter]</tspan></text><text  id="v-879" font-size="24px" xml:space="preserve" y="194.86" text-anchor="middle" font-family="Tahoma, Verdana, Helvetica, Arial" fill="#ffffff" dominant-baseline="hanging" transform="matrix(1,0,0,1,225,0)" style="display: block; fill: rgb(255, 255, 255);"><tspan dy="0" >Páginas y widgets del contexto.</tspan></text><g  id="v-880" color="#ffffff" transform="matrix(1,0,0,1,222.5,268)" display="none" style="fill: rgb(255, 255, 255);"><g ></g><g ></g><g ></g><g ></g></g><image  id="v-881"></image></g></g><!--z-index:32--><g   id="j_83"  transform="translate(1829,243)" style=""><g  id="v-893" style="opacity: 1;"><rect  id="v-894" rx="1" ry="1" stroke-width="2" pointer-events="visiblePainted" fill="#457b9d" stroke="#3e6f8d" stroke-dasharray="" width="450" height="300" style="fill: rgb(69, 123, 157); stroke: rgb(62, 111, 141);"></rect><text  id="v-895" font-size="33.599999999999994px" xml:space="preserve" y="86.9" font-weight="bold" text-anchor="middle" pointer-events="visible" font-family="Tahoma, Verdana, Helvetica, Arial" fill="#ffffff" dominant-baseline="hanging" transform="matrix(1,0,0,1,225,0)" style="fill: rgb(255, 255, 255);"><tspan dy="0" >State Controller</tspan></text><text  id="v-896" font-size="16.799999999999997px" xml:space="preserve" y="128.5" text-anchor="middle" font-family="Tahoma, Verdana, Helvetica, Arial" fill="#ffffff" dominant-baseline="hanging" transform="matrix(1,0,0,1,225,0)" style="display: block; fill: rgb(255, 255, 255);"><tspan dy="0" >[Component: Dart]</tspan></text><text  id="v-897" font-size="24px" xml:space="preserve" y="160.3" text-anchor="middle" font-family="Tahoma, Verdana, Helvetica, Arial" fill="#ffffff" dominant-baseline="hanging" transform="matrix(1,0,0,1,225,0)" style="display: block; fill: rgb(255, 255, 255);"><tspan dy="0" >Mantiene estado de presentación y</tspan><tspan dy="1.2em" x="0" >procesa intenciones.</tspan></text><g  id="v-898" color="#ffffff" transform="matrix(1,0,0,1,222.5,268)" display="none" style="fill: rgb(255, 255, 255);"><g ></g><g ></g><g ></g><g ></g></g><image  id="v-899"></image></g></g><!--z-index:33--><g   id="j_84"  transform="translate(2619,243)" style=""><g  id="v-906" style="opacity: 1;"><rect  id="v-907" rx="1" ry="1" stroke-width="2" pointer-events="visiblePainted" fill="#457b9d" stroke="#3e6f8d" stroke-dasharray="" width="450" height="300" style="fill: rgb(69, 123, 157); stroke: rgb(62, 111, 141);"></rect><text  id="v-908" font-size="33.599999999999994px" xml:space="preserve" y="86.9" font-weight="bold" text-anchor="middle" pointer-events="visible" font-family="Tahoma, Verdana, Helvetica, Arial" fill="#ffffff" dominant-baseline="hanging" transform="matrix(1,0,0,1,225,0)" style="fill: rgb(255, 255, 255);"><tspan dy="0" >Mobile Use Cases</tspan></text><text  id="v-909" font-size="16.799999999999997px" xml:space="preserve" y="128.5" text-anchor="middle" font-family="Tahoma, Verdana, Helvetica, Arial" fill="#ffffff" dominant-baseline="hanging" transform="matrix(1,0,0,1,225,0)" style="display: block; fill: rgb(255, 255, 255);"><tspan dy="0" >[Component: Dart]</tspan></text><text  id="v-910" font-size="24px" xml:space="preserve" y="160.3" text-anchor="middle" font-family="Tahoma, Verdana, Helvetica, Arial" fill="#ffffff" dominant-baseline="hanging" transform="matrix(1,0,0,1,225,0)" style="display: block; fill: rgb(255, 255, 255);"><tspan dy="0" >Casos de uso equivalentes a</tspan><tspan dy="1.2em" x="0" >Android.</tspan></text><g  id="v-911" color="#ffffff" transform="matrix(1,0,0,1,222.5,268)" display="none" style="fill: rgb(255, 255, 255);"><g ></g><g ></g><g ></g><g ></g></g><image  id="v-912"></image></g></g><!--z-index:34--><g   id="j_85"  transform="translate(3409,418)" style=""><g  id="v-919" style="opacity: 1;"><rect  id="v-920" rx="1" ry="1" stroke-width="2" pointer-events="visiblePainted" fill="#457b9d" stroke="#3e6f8d" stroke-dasharray="" width="450" height="300" style="fill: rgb(69, 123, 157); stroke: rgb(62, 111, 141);"></rect><text  id="v-921" font-size="33.599999999999994px" xml:space="preserve" y="81.14000000000001" font-weight="bold" text-anchor="middle" pointer-events="visible" font-family="Tahoma, Verdana, Helvetica, Arial" fill="#ffffff" dominant-baseline="hanging" transform="matrix(1,0,0,1,225,0)" style="fill: rgb(255, 255, 255);"><tspan dy="0" >Repository</tspan><tspan dy="1.2em" x="0" >Implementation</tspan></text><text  id="v-922" font-size="16.799999999999997px" xml:space="preserve" y="163.06" text-anchor="middle" font-family="Tahoma, Verdana, Helvetica, Arial" fill="#ffffff" dominant-baseline="hanging" transform="matrix(1,0,0,1,225,0)" style="display: block; fill: rgb(255, 255, 255);"><tspan dy="0" >[Component: Dart]</tspan></text><text  id="v-923" font-size="24px" xml:space="preserve" y="194.86" text-anchor="middle" font-family="Tahoma, Verdana, Helvetica, Arial" fill="#ffffff" dominant-baseline="hanging" transform="matrix(1,0,0,1,225,0)" style="display: block; fill: rgb(255, 255, 255);"><tspan dy="0" >Coordina fuentes remota y local.</tspan></text><g  id="v-924" color="#ffffff" transform="matrix(1,0,0,1,222.5,268)" display="none" style="fill: rgb(255, 255, 255);"><g ></g><g ></g><g ></g><g ></g></g><image  id="v-925"></image></g></g><!--z-index:35--><g   id="j_86"  transform="translate(4199,243)" style=""><g  id="v-932" style="opacity: 1;"><rect  id="v-933" rx="1" ry="1" stroke-width="2" pointer-events="visiblePainted" fill="#457b9d" stroke="#3e6f8d" stroke-dasharray="" width="450" height="300" style="fill: rgb(69, 123, 157); stroke: rgb(62, 111, 141);"></rect><text  id="v-934" font-size="33.599999999999994px" xml:space="preserve" y="86.9" font-weight="bold" text-anchor="middle" pointer-events="visible" font-family="Tahoma, Verdana, Helvetica, Arial" fill="#ffffff" dominant-baseline="hanging" transform="matrix(1,0,0,1,225,0)" style="fill: rgb(255, 255, 255);"><tspan dy="0" >REST Data Source</tspan></text><text  id="v-935" font-size="16.799999999999997px" xml:space="preserve" y="128.5" text-anchor="middle" font-family="Tahoma, Verdana, Helvetica, Arial" fill="#ffffff" dominant-baseline="hanging" transform="matrix(1,0,0,1,225,0)" style="display: block; fill: rgb(255, 255, 255);"><tspan dy="0" >[Component: Dio]</tspan></text><text  id="v-936" font-size="24px" xml:space="preserve" y="160.3" text-anchor="middle" font-family="Tahoma, Verdana, Helvetica, Arial" fill="#ffffff" dominant-baseline="hanging" transform="matrix(1,0,0,1,225,0)" style="display: block; fill: rgb(255, 255, 255);"><tspan dy="0" >Consume los endpoints del</tspan><tspan dy="1.2em" x="0" >contexto.</tspan></text><g  id="v-937" color="#ffffff" transform="matrix(1,0,0,1,222.5,268)" display="none" style="fill: rgb(255, 255, 255);"><g ></g><g ></g><g ></g><g ></g></g><image  id="v-938"></image></g></g><!--z-index:36--><g   id="j_87"  transform="translate(4199,593)" style=""><g  id="v-945" style="opacity: 1;"><rect  id="v-946" rx="1" ry="1" stroke-width="2" pointer-events="visiblePainted" fill="#457b9d" stroke="#3e6f8d" stroke-dasharray="" width="450" height="300" style="fill: rgb(69, 123, 157); stroke: rgb(62, 111, 141);"></rect><text  id="v-947" font-size="33.599999999999994px" xml:space="preserve" y="101.30000000000001" font-weight="bold" text-anchor="middle" pointer-events="visible" font-family="Tahoma, Verdana, Helvetica, Arial" fill="#ffffff" dominant-baseline="hanging" transform="matrix(1,0,0,1,225,0)" style="fill: rgb(255, 255, 255);"><tspan dy="0" >SQLite Data Source</tspan></text><text  id="v-948" font-size="16.799999999999997px" xml:space="preserve" y="142.9" text-anchor="middle" font-family="Tahoma, Verdana, Helvetica, Arial" fill="#ffffff" dominant-baseline="hanging" transform="matrix(1,0,0,1,225,0)" style="display: block; fill: rgb(255, 255, 255);"><tspan dy="0" >[Component: SQLite]</tspan></text><text  id="v-949" font-size="24px" xml:space="preserve" y="174.7" text-anchor="middle" font-family="Tahoma, Verdana, Helvetica, Arial" fill="#ffffff" dominant-baseline="hanging" transform="matrix(1,0,0,1,225,0)" style="display: block; fill: rgb(255, 255, 255);"><tspan dy="0" >Mantiene caché y outbox local.</tspan></text><g  id="v-950" color="#ffffff" transform="matrix(1,0,0,1,222.5,268)" display="none" style="fill: rgb(255, 255, 255);"><g ></g><g ></g><g ></g><g ></g></g><image  id="v-951"></image></g></g><!--z-index:37--><g   id="j_88"  transform="translate(2619,593)" style=""><g  id="v-958" style="opacity: 1;"><rect  id="v-959" rx="1" ry="1" stroke-width="2" pointer-events="visiblePainted" fill="#457b9d" stroke="#3e6f8d" stroke-dasharray="" width="450" height="300" style="fill: rgb(69, 123, 157); stroke: rgb(62, 111, 141);"></rect><text  id="v-960" font-size="33.599999999999994px" xml:space="preserve" y="66.74000000000001" font-weight="bold" text-anchor="middle" pointer-events="visible" font-family="Tahoma, Verdana, Helvetica, Arial" fill="#ffffff" dominant-baseline="hanging" transform="matrix(1,0,0,1,225,0)" style="fill: rgb(255, 255, 255);"><tspan dy="0" >Synchronization</tspan><tspan dy="1.2em" x="0" >Coordinator</tspan></text><text  id="v-961" font-size="16.799999999999997px" xml:space="preserve" y="148.66" text-anchor="middle" font-family="Tahoma, Verdana, Helvetica, Arial" fill="#ffffff" dominant-baseline="hanging" transform="matrix(1,0,0,1,225,0)" style="display: block; fill: rgb(255, 255, 255);"><tspan dy="0" >[Component: Dart]</tspan></text><text  id="v-962" font-size="24px" xml:space="preserve" y="180.45999999999998" text-anchor="middle" font-family="Tahoma, Verdana, Helvetica, Arial" fill="#ffffff" dominant-baseline="hanging" transform="matrix(1,0,0,1,225,0)" style="display: block; fill: rgb(255, 255, 255);"><tspan dy="0" >Reintenta operaciones pendientes</tspan><tspan dy="1.2em" x="0" >de forma idempotente.</tspan></text><g  id="v-963" color="#ffffff" transform="matrix(1,0,0,1,222.5,268)" display="none" style="fill: rgb(255, 255, 255);"><g ></g><g ></g><g ></g><g ></g></g><image  id="v-964"></image></g></g><!--z-index:38--><g   id="j_90"  style="opacity: 1;"><path fill="none" cursor="pointer" stroke="transparent" stroke-linecap="round" joint-selector="wrapper" id="v-987" stroke-width="10" stroke-linejoin="round" d="M 599 393 L 1039 393"></path><path fill="none" pointer-events="none" joint-selector="line" id="v-986" stroke="#52616b" stroke-width="2" stroke-linejoin="round" stroke-dasharray="8 8" d="M 599 393 L 1039 393" marker-end="url(#v-2401656993)"></path><g id="v-979" ><g id="v-980"  label-idx="0" cursor="move" transform="matrix(1,0,0,1,769,393)" style="cursor: default;"><rect joint-selector="rect" id="v-983" fill="#ffffff" rx="3" ry="3" x="-21.310762405395508" y="-15.022221565246582" width="43.16999435424805" height="27.77777671813965" pointer-events="none"  style="display: block;"></rect><text joint-selector="text" id="v-982" font-size="24px" xml:space="preserve" fill="#52616b" text-anchor="middle" pointer-events="none" font-family="Tahoma, Verdana, Helvetica, Arial" font-weight="normal"  style="display: block;"><tspan dy="0.3em" >Usa</tspan></text></g><g id="v-981"  label-idx="1" cursor="move" transform="matrix(1,0,0,1,759,405)" style="cursor: default;"><rect joint-selector="rect" id="v-985" fill="#ffffff" rx="3" ry="3" x="0" y="0" width="0" height="0"  display="none"></rect><text joint-selector="text" id="v-984" fill="#000000" font-size="14" text-anchor="middle" text-vertical-anchor="middle" pointer-events="none"></text></g></g></g><!--z-index:39--><g   id="j_91"  style="opacity: 1;"><path fill="none" cursor="pointer" stroke="transparent" stroke-linecap="round" joint-selector="wrapper" id="v-999" stroke-width="10" stroke-linejoin="round" d="M 1489 393 L 1829 393"></path><path fill="none" pointer-events="none" joint-selector="line" id="v-998" stroke="#52616b" stroke-width="2" stroke-linejoin="round" stroke-dasharray="8 8" d="M 1489 393 L 1829 393" marker-end="url(#v-2401656993)"></path><g id="v-991" ><g id="v-992"  label-idx="0" cursor="move" transform="matrix(1,0,0,1,1659,393)" style="cursor: default;"><rect joint-selector="rect" id="v-995" fill="#ffffff" rx="3" ry="3" x="-94.57464599609375" y="-29.42222023010254" width="189.1492919921875" height="56.57777786254883" pointer-events="none"  style="display: block;"></rect><text joint-selector="text" id="v-994" font-size="24px" xml:space="preserve" fill="#52616b" text-anchor="middle" pointer-events="none" font-family="Tahoma, Verdana, Helvetica, Arial" font-weight="normal"  style="display: block;"><tspan dy="-0.3em" >Envía intenciones</tspan><tspan dy="1.2em" x="0" >y observa estado</tspan></text></g><g id="v-993"  label-idx="1" cursor="move" transform="matrix(1,0,0,1,1649,419.3999938964844)" style="cursor: default;"><rect joint-selector="rect" id="v-997" fill="#ffffff" rx="3" ry="3" x="0" y="0" width="0" height="0"  display="none"></rect><text joint-selector="text" id="v-996" fill="#000000" font-size="14" text-anchor="middle" text-vertical-anchor="middle" pointer-events="none"></text></g></g></g><!--z-index:40--><g   id="j_92"  style="opacity: 1;"><path fill="none" cursor="pointer" stroke="transparent" stroke-linecap="round" joint-selector="wrapper" id="v-1008" stroke-width="10" stroke-linejoin="round" d="M 2279 393 L 2619 393"></path><path fill="none" pointer-events="none" joint-selector="line" id="v-1007" stroke="#52616b" stroke-width="2" stroke-linejoin="round" stroke-dasharray="8 8" d="M 2279 393 L 2619 393" marker-end="url(#v-2401656993)"></path><g id="v-1000" ><g id="v-1001"  label-idx="0" cursor="move" transform="matrix(1,0,0,1,2449,393)" style="cursor: default;"><rect joint-selector="rect" id="v-1004" fill="#ffffff" rx="3" ry="3" x="-35.30815887451172" y="-15.022221565246582" width="71.15258026123047" height="27.77777671813965" pointer-events="none"  style="display: block;"></rect><text joint-selector="text" id="v-1003" font-size="24px" xml:space="preserve" fill="#52616b" text-anchor="middle" pointer-events="none" font-family="Tahoma, Verdana, Helvetica, Arial" font-weight="normal"  style="display: block;"><tspan dy="0.3em" >Invoca</tspan></text></g><g id="v-1002"  label-idx="1" cursor="move" transform="matrix(1,0,0,1,2439,405)" style="cursor: default;"><rect joint-selector="rect" id="v-1006" fill="#ffffff" rx="3" ry="3" x="0" y="0" width="0" height="0"  display="none"></rect><text joint-selector="text" id="v-1005" fill="#000000" font-size="14" text-anchor="middle" text-vertical-anchor="middle" pointer-events="none"></text></g></g></g><!--z-index:41--><g   id="j_93"  style="opacity: 1;"><path fill="none" cursor="pointer" stroke="transparent" stroke-linecap="round" joint-selector="wrapper" id="v-1020" stroke-width="10" stroke-linejoin="round" d="M 3069 393 L 3229 393 C 3235.666666666666 393 3242.333333333333 393 3249 393 L 3624 393 C 3630.6666666666665 393 3634 396.3333333333333 3634 403 L 3634 418"></path><path fill="none" pointer-events="none" joint-selector="line" id="v-1019" stroke="#52616b" stroke-width="2" stroke-linejoin="round" stroke-dasharray="8 8" d="M 3069 393 L 3229 393 C 3235.666666666666 393 3242.333333333333 393 3249 393 L 3624 393 C 3630.6666666666665 393 3634 396.3333333333333 3634 403 L 3634 418" marker-end="url(#v-2401656993)"></path><g id="v-1012" ><g id="v-1013"  label-idx="0" cursor="move" transform="matrix(1,0,0,1,3348.9912109375,393)" style="cursor: default;"><rect joint-selector="rect" id="v-1016" fill="#ffffff" rx="3" ry="3" x="-71.2673568725586" y="-15.022221565246582" width="143.0626678466797" height="27.77777671813965" pointer-events="none"  style="display: block;"></rect><text joint-selector="text" id="v-1015" font-size="24px" xml:space="preserve" fill="#52616b" text-anchor="middle" pointer-events="none" font-family="Tahoma, Verdana, Helvetica, Arial" font-weight="normal"  style="display: block;"><tspan dy="0.3em" >Usa el puerto</tspan></text></g><g id="v-1014"  label-idx="1" cursor="move" transform="matrix(1,0,0,1,3338.9912109375,405)" style="cursor: default;"><rect joint-selector="rect" id="v-1018" fill="#ffffff" rx="3" ry="3" x="0" y="0" width="0" height="0"  display="none"></rect><text joint-selector="text" id="v-1017" fill="#000000" font-size="14" text-anchor="middle" text-vertical-anchor="middle" pointer-events="none"></text></g></g></g><!--z-index:42--><g   id="j_94"  style="opacity: 1;"><path fill="none" cursor="pointer" stroke="transparent" stroke-linecap="round" joint-selector="wrapper" id="v-1032" stroke-width="10" stroke-linejoin="round" d="M 3634 418 L 3634 403 C 3634 396.3333333333333 3637.333333333333 393 3644 393 L 4019 393 C 4025.6666666666665 393 4032.333333333333 393 4039 393 L 4199 393"></path><path fill="none" pointer-events="none" joint-selector="line" id="v-1031" stroke="#52616b" stroke-width="2" stroke-linejoin="round" stroke-dasharray="8 8" d="M 3634 418 L 3634 403 C 3634 396.3333333333333 3637.333333333333 393 3644 393 L 4019 393 C 4025.6666666666665 393 4032.333333333333 393 4039 393 L 4199 393" marker-end="url(#v-2401656993)"></path><g id="v-1024" ><g id="v-1025"  label-idx="0" cursor="move" transform="matrix(1,0,0,1,3919.0087890625,393)" style="cursor: default;"><rect joint-selector="rect" id="v-1028" fill="#ffffff" rx="3" ry="3" x="-57.269962310791016" y="-29.42222023010254" width="115.10348510742188" height="56.57777786254883" pointer-events="none"  style="display: block;"></rect><text joint-selector="text" id="v-1027" font-size="24px" xml:space="preserve" fill="#52616b" text-anchor="middle" pointer-events="none" font-family="Tahoma, Verdana, Helvetica, Arial" font-weight="normal"  style="display: block;"><tspan dy="-0.3em" >Consulta o</tspan><tspan dy="1.2em" x="0" >sincroniza</tspan></text></g><g id="v-1026"  label-idx="1" cursor="move" transform="matrix(1,0,0,1,3909.0087890625,419.3999938964844)" style="cursor: default;"><rect joint-selector="rect" id="v-1030" fill="#ffffff" rx="3" ry="3" x="0" y="0" width="0" height="0"  display="none"></rect><text joint-selector="text" id="v-1029" fill="#000000" font-size="14" text-anchor="middle" text-vertical-anchor="middle" pointer-events="none"></text></g></g></g><!--z-index:43--><g   id="j_95"  style="opacity: 1;"><path fill="none" cursor="pointer" stroke="transparent" stroke-linecap="round" joint-selector="wrapper" id="v-1044" stroke-width="10" stroke-linejoin="round" d="M 3634 718 L 3634 733 C 3634 739.6666666666666 3637.333333333333 743 3644 743 L 4019 743 C 4025.6666666666665 743 4032.333333333333 743 4039 743 L 4199 743"></path><path fill="none" pointer-events="none" joint-selector="line" id="v-1043" stroke="#52616b" stroke-width="2" stroke-linejoin="round" stroke-dasharray="8 8" d="M 3634 718 L 3634 733 C 3634 739.6666666666666 3637.333333333333 743 3644 743 L 4019 743 C 4025.6666666666665 743 4032.333333333333 743 4039 743 L 4199 743" marker-end="url(#v-2401656993)"></path><g id="v-1036" ><g id="v-1037"  label-idx="0" cursor="move" transform="matrix(1,0,0,1,3919.0087890625,743)" style="cursor: default;"><rect joint-selector="rect" id="v-1040" fill="#ffffff" rx="3" ry="3" x="-71.2673568725586" y="-15.022221565246582" width="143.0626678466797" height="27.77777671813965" pointer-events="none"  style="display: block;"></rect><text joint-selector="text" id="v-1039" font-size="24px" xml:space="preserve" fill="#52616b" text-anchor="middle" pointer-events="none" font-family="Tahoma, Verdana, Helvetica, Arial" font-weight="normal"  style="display: block;"><tspan dy="0.3em" >Lee y escribe</tspan></text></g><g id="v-1038"  label-idx="1" cursor="move" transform="matrix(1,0,0,1,3909.0087890625,755)" style="cursor: default;"><rect joint-selector="rect" id="v-1042" fill="#ffffff" rx="3" ry="3" x="0" y="0" width="0" height="0"  display="none"></rect><text joint-selector="text" id="v-1041" fill="#000000" font-size="14" text-anchor="middle" text-vertical-anchor="middle" pointer-events="none"></text></g></g></g><!--z-index:44--><g   id="j_96"  style="opacity: 1;"><path fill="none" cursor="pointer" stroke="transparent" stroke-linecap="round" joint-selector="wrapper" id="v-1056" stroke-width="10" stroke-linejoin="round" d="M 3069 743 L 3229 743 C 3235.666666666666 743 3242.333333333333 743 3249 743 L 3624 743 C 3630.6666666666665 743 3634 739.6666666666666 3634 733 L 3634 718"></path><path fill="none" pointer-events="none" joint-selector="line" id="v-1055" stroke="#52616b" stroke-width="2" stroke-linejoin="round" stroke-dasharray="8 8" d="M 3069 743 L 3229 743 C 3235.666666666666 743 3242.333333333333 743 3249 743 L 3624 743 C 3630.6666666666665 743 3634 739.6666666666666 3634 733 L 3634 718" marker-end="url(#v-2401656993)"></path><g id="v-1048" ><g id="v-1049"  label-idx="0" cursor="move" transform="matrix(1,0,0,1,3348.9912109375,743)" style="cursor: default;"><rect joint-selector="rect" id="v-1052" fill="#ffffff" rx="3" ry="3" x="-65.27777862548828" y="-43.82221984863281" width="130.55555725097656" height="85.37777709960938" pointer-events="none"  style="display: block;"></rect><text joint-selector="text" id="v-1051" font-size="24px" xml:space="preserve" fill="#52616b" text-anchor="middle" pointer-events="none" font-family="Tahoma, Verdana, Helvetica, Arial" font-weight="normal"  style="display: block;"><tspan dy="-0.8999999999999999em" >Procesa</tspan><tspan dy="1.2em" x="0" >operaciones</tspan><tspan dy="1.2em" x="0" >pendientes</tspan></text></g><g id="v-1050"  label-idx="1" cursor="move" transform="matrix(1,0,0,1,3338.9912109375,783.7999877929688)" style="cursor: default;"><rect joint-selector="rect" id="v-1054" fill="#ffffff" rx="3" ry="3" x="0" y="0" width="0" height="0"  display="none"></rect><text joint-selector="text" id="v-1053" fill="#000000" font-size="14" text-anchor="middle" text-vertical-anchor="middle" pointer-events="none"></text></g></g></g><!--z-index:45--><g   id="j_97"  style="opacity: 1;"><path fill="none" cursor="pointer" stroke="transparent" stroke-linecap="round" joint-selector="wrapper" id="v-1071" stroke-width="10" stroke-linejoin="round" d="M 4649 393 L 5039 393"></path><path fill="none" pointer-events="none" joint-selector="line" id="v-1070" stroke="#52616b" stroke-width="2" stroke-linejoin="round" stroke-dasharray="8 8" d="M 4649 393 L 5039 393" marker-end="url(#v-2401656993)"></path><g id="v-1060" ><g id="v-1061"  label-idx="0" cursor="move" transform="matrix(1,0,0,1,4869,379.6000061035156)" style="cursor: default;"><rect joint-selector="rect" id="v-1065" fill="#ffffff" rx="3" ry="3" x="-51.28038024902344" y="-15.022221565246582" width="103.10092163085938" height="27.77777671813965" pointer-events="none"  style="display: block;"></rect><text joint-selector="text" id="v-1064" font-size="24px" xml:space="preserve" fill="#52616b" text-anchor="middle" pointer-events="none" font-family="Tahoma, Verdana, Helvetica, Arial" font-weight="normal"  style="display: block;"><tspan dy="0.3em" >Consume</tspan></text></g><g id="v-1062"  label-idx="1" cursor="move" transform="matrix(1,0,0,1,4869,410)" style="cursor: default;"><rect joint-selector="rect" id="v-1067" fill="#ffffff" rx="3" ry="3" x="-83.55034637451172" y="-8.848888397216797" width="167.97752380371094" height="16.66666603088379"  pointer-events="none" style="display: block;"></rect><text joint-selector="text" id="v-1066" font-size="16.799999999999997px" xml:space="preserve" fill="#52616b" text-anchor="middle" pointer-events="none" font-family="Tahoma, Verdana, Helvetica, Arial" font-weight="normal"  style="display: block;"><tspan dy="0.3em" >[JSON/HTTPS + JWT]</tspan></text></g><g id="v-1063"  label-idx="2" cursor="move" transform="matrix(1,0,0,1,4834,418.3999938964844)" style="cursor: default;"><rect joint-selector="rect" id="v-1069" fill="#ffffff" rx="3" ry="3" x="0" y="0" width="0" height="0"  display="none"></rect><text joint-selector="text" id="v-1068" fill="#000000" font-size="14" text-anchor="middle" text-vertical-anchor="middle" pointer-events="none"></text></g></g></g><!--z-index:46--><g   id="j_98"  style="opacity: 1;"><path fill="none" cursor="pointer" stroke="transparent" stroke-linecap="round" joint-selector="wrapper" id="v-1083" stroke-width="10" stroke-linejoin="round" d="M 4649 743 L 5039 743"></path><path fill="none" pointer-events="none" joint-selector="line" id="v-1082" stroke="#52616b" stroke-width="2" stroke-linejoin="round" stroke-dasharray="8 8" d="M 4649 743 L 5039 743" marker-end="url(#v-2401656993)"></path><g id="v-1072" ><g id="v-1073"  label-idx="0" cursor="move" transform="matrix(1,0,0,1,4869,729.5999755859375)" style="cursor: default;"><rect joint-selector="rect" id="v-1077" fill="#ffffff" rx="3" ry="3" x="-43.27256774902344" y="-15.022221565246582" width="87.10919952392578" height="27.77777671813965" pointer-events="none"  style="display: block;"></rect><text joint-selector="text" id="v-1076" font-size="24px" xml:space="preserve" fill="#52616b" text-anchor="middle" pointer-events="none" font-family="Tahoma, Verdana, Helvetica, Arial" font-weight="normal"  style="display: block;"><tspan dy="0.3em" >Persiste</tspan></text></g><g id="v-1074"  label-idx="1" cursor="move" transform="matrix(1,0,0,1,4869,760)" style="cursor: default;"><rect joint-selector="rect" id="v-1079" fill="#ffffff" rx="3" ry="3" x="-30.273435592651367" y="-8.848888397216797" width="61.42772674560547" height="16.66666603088379"  pointer-events="none" style="display: block;"></rect><text joint-selector="text" id="v-1078" font-size="16.799999999999997px" xml:space="preserve" fill="#52616b" text-anchor="middle" pointer-events="none" font-family="Tahoma, Verdana, Helvetica, Arial" font-weight="normal"  style="display: block;"><tspan dy="0.3em" >[SQLite]</tspan></text></g><g id="v-1075"  label-idx="2" cursor="move" transform="matrix(1,0,0,1,4834,768.4000244140625)" style="cursor: default;"><rect joint-selector="rect" id="v-1081" fill="#ffffff" rx="3" ry="3" x="0" y="0" width="0" height="0"  display="none"></rect><text joint-selector="text" id="v-1080" fill="#000000" font-size="14" text-anchor="middle" text-vertical-anchor="middle" pointer-events="none"></text></g></g></g><!--z-index:47--><!--z-index:48--><!--z-index:49--><!--z-index:50--><!--z-index:51--></g><g  style="user-select: none;"></g><g ></g><g  display="none"></g></g></svg>